<svg xmlns="http://www.w3.org/2000/svg" viewBox="0 0 512 512" width="512" height="512">
  <defs>
    <linearGradient id="bg" x1="0" y1="0" x2="1" y2="1">
      <stop offset="0%" stop-color="#1a0a2e"/>
      <stop offset="100%" stop-color="#06060a"/>
    </linearGradient>
    <linearGradient id="accent" x1="0" y1="0" x2="0" y2="1">
      <stop offset="0%" stop-color="#c084fc"/>
      <stop offset="100%" stop-color="#a855f7"/>
    </linearGradient>
  </defs>
  <!-- Background -->
  <rect width="512" height="512" rx="96" fill="url(#bg)"/>
  <!-- Quill / Pen stroke -->
  <path d="M256 80 C200 180, 140 280, 180 400 C200 380, 240 340, 256 320 C272 340, 312 380, 332 400 C372 280, 312 180, 256 80Z" fill="url(#accent)" opacity="0.15"/>
  <!-- Star sparkle -->
  <path d="M256 120 L264 160 L300 160 L270 184 L280 220 L256 200 L232 220 L242 184 L212 160 L248 160Z" fill="url(#accent)" opacity="0.9"/>
  <!-- Text: SV -->
  <text x="256" y="350" text-anchor="middle" font-family="Georgia, serif" font-size="140" font-weight="700" fill="#f0e6d3" letter-spacing="-4">SV</text>
  <!-- Subtitle dots -->
  <circle cx="220" cy="400" r="6" fill="#c084fc" opacity="0.6"/>
  <circle cx="256" cy="400" r="6" fill="#c084fc" opacity="0.8"/>
  <circle cx="292" cy="400" r="6" fill="#c084fc" opacity="0.6"/>
</svg>
